<?xml version="1.0" encoding="UTF-8" standalone="no"?><!DOCTYPE svg PUBLIC "-//W3C//DTD SVG 1.1//EN" "http://www.w3.org/Graphics/SVG/1.1/DTD/svg11.dtd"><svg width="100%" height="100%" viewBox="0 0 1341 992" version="1.1" xmlns="http://www.w3.org/2000/svg" xmlns:xlink="http://www.w3.org/1999/xlink" xml:space="preserve" xmlns:serif="http://www.serif.com/" style="fill-rule:evenodd;clip-rule:evenodd;stroke-linejoin:round;stroke-miterlimit:2;"><g id="Whale"><path d="M383.475,19.673c40.987,39.679 56.854,97.363 43.632,159.715c-7.603,37.345 -20.494,67.021 -41.319,95.696c-10.577,15.005 -20.493,31.01 -21.485,35.345c-2.644,10.669 5.619,50.682 15.866,76.356c31.733,79.025 101.148,138.043 181.47,154.714c45.946,9.67 81.315,6.002 141.475,-15.004c16.527,-5.669 30.74,-9.67 31.732,-9.003c0.661,0.667 -5.95,6.669 -14.544,13.004c-43.632,33.01 -72.059,41.346 -127.922,38.345c-44.293,-2.334 -63.795,-7.335 -102.469,-26.675c-49.582,-25.007 -92.884,-68.354 -118.997,-119.37c-25.122,-48.681 -34.377,-100.697 -23.138,-128.372c2.644,-6.336 11.569,-21.34 19.832,-33.01c21.155,-30.01 30.08,-51.016 36.691,-87.027c8.594,-49.015 0.661,-88.694 -24.791,-123.705c-5.619,-7.669 -11.569,-13.337 -13.222,-12.67c-1.653,1 -3.636,7.002 -4.627,13.337c-5.289,32.343 -30.741,67.688 -70.407,97.363c-29.749,22.007 -38.343,37.012 -38.343,66.354c-0,12.337 1.983,24.674 5.288,31.009c2.975,6.002 4.959,10.67 4.297,10.67c-0.33,0 -8.263,-7.002 -17.188,-15.338c-28.758,-27.675 -55.201,-33.677 -99.164,-23.007c-28.427,7.002 -68.423,6.336 -95.859,-1.333c-12.56,-3.668 -23.469,-6.002 -24.13,-5.669c-0.33,0.667 5.95,14.338 13.883,31.01c28.427,56.684 67.762,86.359 136.516,102.698c38.674,9.336 59.168,19.673 68.093,34.677c2.644,4.668 8.925,28.342 13.552,52.016c32.724,167.718 95.198,277.085 230.061,402.79c31.402,29.343 27.105,29.009 -12.561,-0.667c-73.051,-54.683 -136.516,-133.707 -181.14,-225.069c-30.079,-62.352 -41.648,-100.03 -62.803,-205.062c-2.975,-15.005 -19.503,-26.008 -46.938,-32.01c-93.214,-20.006 -145.441,-59.685 -173.207,-131.707c-4.958,-12.004 -9.586,-27.676 -10.908,-35.345c-3.636,-24.007 5.62,-26.008 57.515,-11.336c30.741,8.336 47.599,8.336 82.307,-0c33.054,-8.003 47.268,-8.336 68.753,-1.668c8.925,2.668 16.528,5.002 16.858,5.002c0.331,-0 2.975,-7.336 5.62,-16.005c6.941,-20.673 21.155,-37.678 44.623,-54.016c38.674,-26.342 60.16,-60.019 64.788,-100.698c2.975,-24.674 3.636,-26.008 13.552,-26.008c5.95,-0 14.544,6.002 28.758,19.673Z" style="fill:#eeeef6;"/><path d="M395.705,116.036c2.314,10.336 3.305,24.674 1.983,35.01c-3.966,32.344 -7.602,27.342 -9.255,-13.004c-1.322,-30.009 -3.306,-44.347 -8.594,-58.017c-3.967,-10.004 -7.272,-19.006 -6.942,-20.007c0.661,-4.668 19.172,40.68 22.808,56.018Z" style="fill:url(#_Linear1);"/><path d="M115.401,298.425c8.594,5.668 15.536,11.003 15.866,12.67c0,4.335 -23.138,-7.002 -39.665,-19.339c-13.883,-10.336 -42.971,-44.347 -42.971,-50.349c-0,-1.333 11.569,9.003 25.782,22.341c13.883,13.67 32.394,29.342 40.988,34.677Z" style="fill:url(#_Linear2);"/><path d="M1197.28,331.768c32.063,8.336 70.737,29.009 93.545,50.683c22.808,21.673 26.444,32.676 11.9,36.344c-6.611,1.667 -21.181,-9.372 -31.072,-15.338c-10.687,-6.446 -21.783,-16.489 -33.054,-23.34c-25.783,-15.672 -85.327,-17.762 -127.922,-13.004c-47.764,5.335 -115.691,25.674 -158.663,45.013c-47.268,21.007 -97.18,56.351 -169.24,119.704c-43.962,38.345 -90.9,73.022 -117.674,86.693c-23.8,11.67 -61.152,26.008 -63.465,24.007c-0.661,-0.666 11.238,-9.669 26.113,-19.672c40.327,-27.342 103.13,-79.025 162.959,-134.375c76.687,-71.355 127.592,-105.032 198.329,-132.04c69.745,-26.675 159.323,-37.012 208.244,-24.675Z" style="fill:#eeeef6;"/><path id="whale-belly" d="M1330.82,457.474c12.561,40.345 13.222,117.702 0.992,171.052c-26.113,113.368 -88.256,210.398 -174.859,272.75c-53.88,38.679 -119.989,67.688 -190.726,83.026c-28.758,6.335 -43.302,7.335 -107.758,7.335c-67.763,0 -78.009,-0.666 -117.675,-9.002c-24.13,-5.002 -49.252,-11.004 -56.193,-13.671c-12.23,-4.001 -10.908,-4.335 28.427,-6.335c94.206,-5.002 176.843,-38.012 251.546,-101.031c70.407,-59.352 136.516,-155.048 171.224,-248.743c7.602,-19.673 14.544,-42.013 15.535,-49.682c2.314,-13.338 1.984,-13.671 -5.619,-11.337c-10.908,3.334 -10.578,2.667 -22.808,38.345c-15.205,45.347 -41.979,97.697 -70.406,139.376c-84.29,122.704 -197.337,196.06 -316.334,205.73l-24.791,2l11.239,-9.336c6.28,-5.001 18.18,-15.671 26.444,-23.007c9.255,-8.669 25.452,-18.005 41.648,-24.341c35.7,-14.337 70.738,-33.677 102.139,-56.35c45.947,-33.344 114.37,-111.701 150.399,-172.053c19.172,-32.01 41.649,-78.024 39.005,-80.691c-0.661,-1.001 -5.289,-0.667 -9.917,0.333c-6.61,1.667 -12.891,10.003 -27.104,36.011c-25.783,48.015 -57.516,91.028 -95.859,131.707c-49.913,53.016 -93.545,85.693 -144.449,108.367l-18.511,8.336l7.272,-20.007c5.95,-18.005 9.917,-23.007 33.386,-42.679c47.268,-39.679 56.854,-51.016 104.122,-123.371c68.093,-103.365 81.314,-114.702 162.299,-138.71c92.553,-27.341 183.453,-59.685 217.169,-77.69c16.197,-8.669 16.197,-8.669 20.163,3.668Zm-133.541,79.691c-1.322,1.667 -5.95,17.672 -10.247,35.344c-10.577,42.346 -30.741,93.028 -49.912,127.039c-23.469,41.012 -71.729,107.7 -103.461,143.044c-38.674,43.68 -40.327,45.68 -37.683,52.016c4.297,11.337 14.544,5.335 42.31,-25.341c56.193,-61.353 88.587,-107.033 122.964,-173.72c22.146,-43.347 44.954,-107.7 49.912,-141.377c3.306,-20.34 2.975,-20.673 -4.297,-20.673c-4.297,-0 -8.594,1.667 -9.586,3.668Zm107.428,-41.68c-4.297,1.334 -5.289,8.67 -5.289,42.347c-0.33,24.674 -2.644,50.682 -5.95,66.687c-13.221,61.018 -46.607,136.041 -81.645,182.389c-11.238,15.338 -14.874,26.675 -9.255,30.343c7.603,4.668 15.536,-3.001 38.013,-37.345c51.565,-79.024 77.348,-160.383 77.348,-243.075c-0,-28.342 -2.314,-43.68 -6.281,-43.013c-0.991,0.334 -4.297,1 -6.941,1.667Zm-47.929,21.007c-5.289,2 -6.942,8.002 -10.247,34.677c-10.247,82.359 -55.863,180.722 -129.905,281.42c-6.611,9.002 -7.272,11.67 -3.636,16.005c7.272,8.669 11.569,5.668 30.41,-19.34c47.268,-62.686 80.984,-126.705 104.453,-197.727c14.544,-43.68 25.783,-118.703 18.18,-117.703c-1.653,0 -5.619,1.334 -9.255,2.668Z" style="fill:url(#_Linear3);"/><path id="whale-eye" d="M977.468,495.819c15.535,9.002 20.824,28.008 12.56,46.014c-4.958,11.003 -18.51,18.339 -34.377,18.339c-16.857,-0 -34.376,-17.672 -34.376,-35.011c-0,-9.67 2.644,-15.005 11.238,-23.674c12.891,-13.004 29.419,-15.004 44.955,-5.668Z" style="fill:#eeeef6;"/><path d="M464.789,593.849c9.917,6.002 30.08,15.004 44.624,20.006c0,-0 26.444,7.78 26.774,9.336c0.331,1.556 -16.581,0.952 -24.791,0c-11.018,-1.278 -28.427,-1.334 -41.318,-7.669c-21.816,-10.003 -36.691,-23.34 -44.624,-39.012c-10.247,-20.006 -7.933,-22.34 7.603,-7.335c7.602,7.669 21.816,18.672 31.732,24.674Z" style="fill:#eeeef6;"/><path d="M676.009,756.565c-36.03,23.007 -56.524,50.016 -74.704,97.697c-10.247,27.008 -25.783,52.016 -41.318,66.687l-9.586,9.336l14.874,0c36.03,0 80.984,-17.005 116.353,-44.347c22.808,-17.338 52.226,-49.682 82.967,-91.361c29.75,-40.012 30.08,-40.012 15.205,-7.336c-47.929,105.366 -119.658,161.383 -212.211,165.718c-56.193,2.334 -79,-8.669 -51.896,-25.675c13.883,-8.669 35.699,-32.009 45.946,-48.681c4.298,-7.336 12.892,-25.341 18.842,-40.012c18.18,-46.348 41.979,-71.022 80.653,-85.36c26.113,-9.336 32.724,-8.002 14.875,3.334Z" style="fill:#eeeef6;"/></g><g id="Stars-left"><path d="M180.849,401.79c5.805,11.98 11.315,19.759 26.444,26.675c-11.281,3.591 -21.198,12.484 -26.444,23.34c-5.245,-10.856 -11.856,-19.749 -23.138,-23.34c13.513,-4.405 17.922,-12.187 23.138,-26.675Z" style="fill:#57cafe;"/><path d="M213.827,528.162c2.622,8.904 8.02,15.907 16.197,21.006c-8.066,4.657 -13.08,11.659 -15.04,21.007c-3.274,-8.755 -9.059,-15.368 -17.354,-19.84c9.48,-4.486 14.878,-11.875 16.197,-22.173Z" style="fill:#7a63e0;"/><path d="M140.892,484.223c5.509,1.092 12.774,7.432 14.668,12.92c1.894,5.488 0.551,16.116 -3.305,20.006c-3.857,3.89 -14.959,4.407 -19.833,3.335c-17.17,-3.777 -16.287,-18.293 -9.917,-29.894c2.389,-4.35 12.878,-7.46 18.387,-6.367Z" style="fill:#eeeef6;fill-rule:nonzero;"/></g><g id="Stars-right"><path d="M1074.98,193.018c8.181,6.5 12.649,12.009 14.589,22.538c1.15,12.85 -1.089,20.796 -9.202,30.867c-7.315,7.467 -13.057,9.923 -23.561,10.322c-13.117,-0.77 -20.079,-5.276 -28.815,-14.954c-7.034,-10.018 -8.646,-15.747 -6.916,-27.818c2.436,-10.192 7.713,-15.897 15.863,-22.161c13.009,-7.295 25.168,-6.617 38.042,1.206Z" style="fill:#7a63e0;fill-rule:nonzero;"/><path d="M1119.04,114.522c4.241,-6.234 6.563,-22.827 7.343,-22.827c0.099,0.827 3.846,19.132 9.18,24.777c6.221,4.16 13.436,5.745 20.657,7.079c-0,0.389 -15.047,4.559 -24.099,11.798c-2.92,5.682 -6.495,17.698 -6.886,17.698c-0.195,-0.94 -0.39,-1.88 -0.591,-2.848c-2.068,-10.009 -2.068,-10.009 -7.441,-18.389c-6.717,-4.246 -21.804,-7.858 -21.804,-8.259c1.063,-0.174 1.063,-0.174 2.147,-0.351c11.761,-2.062 11.761,-2.062 21.494,-8.678Z" style="fill:#eeeef6;fill-rule:nonzero;"/><path d="M1172.85,229.488c3.918,-5.76 6.063,-21.091 6.784,-21.091c0.092,0.765 3.554,17.677 8.482,22.892c5.747,3.843 12.414,5.308 19.085,6.54c-0,0.36 -13.902,4.213 -22.265,10.901c-2.698,5.25 -6.001,16.351 -6.362,16.351c-0.18,-0.868 -0.361,-1.737 -0.547,-2.631c-1.91,-9.247 -1.91,-9.247 -6.875,-16.99c-6.205,-3.922 -20.144,-7.26 -20.144,-7.631c0.982,-0.16 0.982,-0.16 1.983,-0.323c10.867,-1.905 10.867,-1.905 19.859,-8.018Z" style="fill:#57cafe;fill-rule:nonzero;"/></g><g id="Planet"><path d="M921.875,338.512c0.01,0.801 -34.682,25.086 -46.582,34.089c-38.013,28.342 -54.21,34.011 -102.47,35.678c-39.996,1.334 -41.979,1.334 -49.251,-6.002c-6.942,-7.002 -6.942,-7.669 -1.653,-10.67c2.975,-2.001 17.188,-7.002 20.494,-10.003c3.305,-2.667 10.577,-7.336 15.866,-10.337c14.465,-7.146 42.113,-37.963 41.502,-44.47c29.523,-17.358 55.507,-34.712 74.838,-50.735c10.465,-8.675 19.781,-16.297 27.198,-22.331c6.936,25.639 19.627,50.546 20.058,84.781Zm-175.549,6.197c-34.301,14.251 -52.753,20.547 -50.274,16.905c2.45,-3.598 -8.748,-33.568 -58.652,-42.261c-16.176,-2.818 -86.58,8.434 -93.976,4.9c-6.281,-3.001 -8.264,-6.469 -11.9,-8.669c-3.305,-2.001 -12.891,-13.671 -11.239,-16.339c1.653,-2.667 5.62,-3.334 11.239,-2c10.247,2.667 66.44,7.335 71.068,5.335c3.437,-1.486 16.883,-10.927 26.443,-13.338c13.883,-3.501 28.427,4.335 37.022,12.337c9.916,9.337 34.707,19.673 52.557,22.007c42.64,6.002 91.231,-33.01 90.9,-73.022c-0,-5.335 -2.975,-3.668 -15.205,9.003c-17.189,18.339 -37.683,31.343 -54.21,34.343c-8.925,1.668 -15.536,0 -28.096,-6.668c-8.925,-5.002 -19.503,-11.671 -23.139,-14.671c-19.502,-17.673 -55.201,-25.008 -75.034,-15.672c-6.611,3.334 -12.427,4.681 -18.841,6.335c-7.327,1.89 -15.205,4.668 -25.122,5.002c-11.238,0.333 -32.724,-8.669 -36.36,-11.337c-5.288,-4.001 -6.28,-8.336 -5.619,-27.008c0.331,-12.337 3.967,-28.62 7.272,-37.678c2.39,-6.551 10.578,-16.672 12.561,-16.672c1.983,-0 6.28,3.334 9.586,7.335c9.255,11.671 25.452,19.34 39.996,19.34c10.577,-0 15.866,-2.334 25.121,-11.337c11.57,-10.67 15.206,-18.673 8.925,-18.673c-1.983,0 -14.213,5.335 -23.799,4.669c-17.519,-0.667 -41.649,-25.008 -43.302,-33.344c-0.213,-1.149 -0.611,-1.88 -1.308,-2.111c59.99,-45.585 132.293,-49.919 134.062,-50.089c17.849,-1.715 151.401,10.199 199.873,147.181c-46.955,45.618 -98.756,84.679 -150.549,106.197Z" style="fill:url(#_Linear4);"/><path d="M894.2,236.086c-48.472,-136.982 -180.837,-144.411 -198.686,-142.696c-3.261,0.314 -246.023,14.766 -209.911,275.417c0.254,1.839 -12.978,15.712 -16.147,10.076c-16.685,-29.668 -31.961,-292.538 226.058,-309.004c47.409,-3.025 102.602,16.455 147.685,55.229c17.002,-13.247 121.379,-90.998 168.795,-41.794c30.569,31.722 -47.603,112.617 -92.924,157.146c8.963,28.465 13.518,60.14 12.19,94.76c-0.034,0.867 -19.367,10.877 -19.377,10.076c-0.431,-34.235 -4.618,-63.867 -11.555,-89.506c-7.416,6.034 -16.732,13.656 -27.198,22.331c-100.603,83.39 -381.367,202.804 -403.674,171.296c-0,0 135.888,-41.297 271.269,-110.838c49.915,-25.64 106.52,-56.875 153.475,-102.493Zm-45.719,-106.303c25.662,23.361 47.687,53.166 62.588,88.79c0.272,-0.303 0.543,-0.606 0.814,-0.909c175.124,-196.1 -45.154,-96.34 -63.402,-87.881Z" style="fill:#eeeef6;"/></g><defs><linearGradient id="_Linear1" x1="0" y1="0" x2="1" y2="0" gradientUnits="userSpaceOnUse" gradientTransform="matrix(25.4061,0,0,112.537,372.874,115.952)"><stop offset="0" style="stop-color:#7a63e0;stop-opacity:1"/><stop offset="1" style="stop-color:#57cafe;stop-opacity:1"/></linearGradient><linearGradient id="_Linear2" x1="0" y1="0" x2="1" y2="0" gradientUnits="userSpaceOnUse" gradientTransform="matrix(82.6367,0,0,70.7464,48.6306,276.665)"><stop offset="0" style="stop-color:#7a63e0;stop-opacity:1"/><stop offset="1" style="stop-color:#57cafe;stop-opacity:1"/></linearGradient><linearGradient id="_Linear3" x1="0" y1="0" x2="1" y2="0" gradientUnits="userSpaceOnUse" gradientTransform="matrix(662.837,0,0,543.935,677.788,719.67)"><stop offset="0" style="stop-color:#7a63e0;stop-opacity:1"/><stop offset="1" style="stop-color:#57cafe;stop-opacity:1"/></linearGradient><linearGradient id="_Linear4" x1="0" y1="0" x2="1" y2="0" gradientUnits="userSpaceOnUse" gradientTransform="matrix(393.276,0,0,317.812,520.095,250.051)"><stop offset="0" style="stop-color:#7a63e0;stop-opacity:1"/><stop offset="0.46" style="stop-color:#7081e9;stop-opacity:1"/><stop offset="1" style="stop-color:#57cafe;stop-opacity:1"/></linearGradient></defs></svg>