<?xml version="1.0" encoding="UTF-8" standalone="no"?>
<!DOCTYPE svg PUBLIC "-//W3C//DTD SVG 1.1//EN" "http://www.w3.org/Graphics/SVG/1.1/DTD/svg11.dtd">
<svg width="100%" height="100%" viewBox="0 0 429 318" version="1.1" xmlns="http://www.w3.org/2000/svg" xmlns:xlink="http://www.w3.org/1999/xlink" xml:space="preserve" xmlns:serif="http://www.serif.com/" style="fill-rule:evenodd;clip-rule:evenodd;stroke-linejoin:round;stroke-miterlimit:2;">
    <g id="Whale" transform="matrix(1,0,0,1,-331,-142.676)">
        <path d="M453.712,148.971C466.828,161.669 471.905,180.128 467.674,200.08C465.241,212.031 461.116,221.527 454.452,230.703C451.068,235.504 447.894,240.626 447.577,242.013C446.731,245.428 449.375,258.231 452.654,266.447C462.809,291.735 485.021,310.621 510.725,315.956C525.427,319.05 536.745,317.876 555.996,311.154C561.285,309.34 565.833,308.06 566.151,308.273C566.362,308.487 564.247,310.407 561.497,312.435C547.534,322.998 538.438,325.665 520.562,324.705C506.388,323.958 500.147,322.358 487.771,316.169C471.905,308.167 458.049,294.296 449.692,277.971C441.654,262.393 438.692,245.748 442.288,236.892C443.134,234.864 445.99,230.063 448.635,226.328C455.404,216.725 458.26,210.003 460.376,198.48C463.126,182.795 460.587,170.098 452.443,158.894C450.644,156.44 448.74,154.626 448.212,154.84C447.683,155.16 447.048,157.08 446.731,159.108C445.038,169.458 436.894,180.768 424.201,190.264C414.681,197.306 411.931,202.108 411.931,211.497C411.931,215.445 412.565,219.393 413.623,221.42C414.575,223.341 415.21,224.835 414.998,224.835C414.892,224.835 412.354,222.594 409.498,219.926C400.295,211.07 391.833,209.15 377.765,212.564C368.669,214.805 355.87,214.591 347.091,212.137C343.071,210.964 339.581,210.217 339.369,210.323C339.263,210.537 341.273,214.912 343.812,220.246C352.908,238.385 365.496,247.882 387.497,253.11C399.872,256.097 406.43,259.405 409.286,264.207C410.133,265.7 412.142,273.276 413.623,280.852C424.095,334.522 444.086,369.519 487.243,409.745C497.291,419.134 495.916,419.027 483.223,409.531C459.847,392.032 439.538,366.745 425.258,337.509C415.633,317.556 411.931,305.499 405.161,271.889C404.209,267.088 398.92,263.566 390.141,261.646C360.313,255.244 343.6,242.547 334.715,219.5C333.128,215.658 331.647,210.644 331.224,208.189C330.061,200.507 333.023,199.867 349.629,204.562C359.466,207.229 364.861,207.229 375.967,204.562C386.545,202.001 391.093,201.894 397.968,204.028C400.824,204.882 403.257,205.629 403.363,205.629C403.469,205.629 404.315,203.281 405.161,200.507C407.382,193.892 411.931,188.45 419.441,183.222C431.816,174.793 438.692,164.016 440.173,150.999C441.125,143.103 441.336,142.676 444.509,142.676C446.413,142.676 449.164,144.597 453.712,148.971Z" style="fill:rgb(238,238,246);"/>
        <path d="M457.626,179.807C458.366,183.115 458.683,187.703 458.26,191.011C456.991,201.361 455.827,199.76 455.299,186.85C454.875,177.247 454.241,172.659 452.548,168.284C451.279,165.083 450.221,162.202 450.327,161.882C450.539,160.388 456.462,174.899 457.626,179.807Z" style="fill:url(#_Linear1);"/>
        <path d="M367.928,238.172C370.678,239.986 372.9,241.693 373.006,242.227C373.006,243.614 365.601,239.986 360.313,236.038C355.87,232.73 346.562,221.847 346.562,219.926C346.562,219.5 350.264,222.807 354.812,227.075C359.255,231.45 365.178,236.465 367.928,238.172Z" style="fill:url(#_Linear2);"/>
        <path d="M714.13,248.842C724.39,251.509 736.766,258.125 744.064,265.06C751.363,271.996 752.526,275.517 747.872,276.69C745.757,277.224 741.094,273.691 737.929,271.782C734.509,269.719 730.959,266.506 727.352,264.313C719.101,259.298 700.047,258.63 686.417,260.152C671.132,261.859 649.396,268.368 635.645,274.556C620.519,281.279 604.547,292.589 581.488,312.862C567.42,325.132 552.4,336.229 543.832,340.603C536.216,344.338 524.264,348.926 523.523,348.286C523.312,348.072 527.12,345.191 531.88,341.99C544.784,333.241 564.881,316.703 584.027,298.991C608.567,276.157 624.856,265.38 647.492,256.738C669.81,248.202 698.475,244.894 714.13,248.842Z" style="fill:rgb(238,238,246);"/>
        <path id="whale-belly" d="M756.863,289.068C760.883,301.978 761.094,326.732 757.18,343.804C748.824,380.082 728.939,411.132 701.225,431.084C683.984,443.462 662.829,452.744 640.193,457.653C630.991,459.68 626.337,460 605.711,460C584.027,460 580.748,459.787 568.055,457.119C560.333,455.519 552.294,453.598 550.073,452.744C546.159,451.464 546.582,451.357 559.17,450.717C589.315,449.117 615.759,438.553 639.664,418.387C662.194,399.395 683.349,368.772 694.456,338.789C696.889,332.494 699.11,325.345 699.427,322.891C700.168,318.623 700.062,318.517 697.629,319.264C694.139,320.33 694.244,320.117 690.331,331.534C685.465,346.045 676.897,362.797 667.801,376.134C640.828,415.4 604.653,438.874 566.574,441.968L558.641,442.608L562.237,439.62C564.247,438.02 568.055,434.606 570.699,432.258C573.661,429.484 578.844,426.496 584.027,424.469C595.45,419.881 606.663,413.692 616.711,406.437C631.414,395.767 653.309,370.693 664.839,351.38C670.974,341.137 678.166,326.412 677.32,325.559C677.109,325.239 675.628,325.345 674.147,325.665C672.032,326.199 670.022,328.866 665.473,337.189C657.223,352.554 647.069,366.318 634.799,379.335C618.827,396.3 604.864,406.757 588.575,414.013L582.652,416.68L584.979,410.278C586.883,404.516 588.152,402.916 595.662,396.621C610.788,383.923 613.855,380.296 628.981,357.142C650.771,324.065 655.002,320.437 680.917,312.755C710.534,304.005 739.622,293.656 750.411,287.894C755.594,285.12 755.594,285.12 756.863,289.068ZM714.13,314.569C713.707,315.102 712.226,320.224 710.851,325.879C707.466,339.43 701.014,355.648 694.879,366.531C687.369,379.655 671.926,400.995 661.771,412.305C649.396,426.283 648.867,426.923 649.713,428.95C651.088,432.578 654.367,430.658 663.252,420.841C681.234,401.209 691.6,386.591 702.601,365.251C709.687,351.38 716.986,330.787 718.573,320.01C719.63,313.502 719.525,313.395 717.197,313.395C715.822,313.395 714.447,313.929 714.13,314.569ZM748.507,301.231C747.132,301.658 746.814,304.005 746.814,314.782C746.709,322.678 745.968,331 744.911,336.122C740.68,355.648 729.996,379.655 718.784,394.487C715.188,399.395 714.024,403.023 715.822,404.196C718.255,405.69 720.794,403.236 727.987,392.246C744.487,366.958 752.738,340.923 752.738,314.462C752.738,305.393 751.997,300.484 750.728,300.698C750.411,300.805 749.353,301.018 748.507,301.231ZM733.17,307.953C731.477,308.594 730.948,310.514 729.89,319.05C726.611,345.405 712.014,376.881 688.321,409.104C686.205,411.985 685.994,412.839 687.157,414.226C689.484,417 690.859,416.04 696.889,408.037C712.014,387.978 722.804,367.492 730.314,344.765C734.968,330.787 738.564,306.78 736.131,307.1C735.602,307.1 734.333,307.527 733.17,307.953Z" style="fill:url(#_Linear3);"/>
        <g transform="matrix(1.6244,0,0,1.79639,137.345,10.8097)">
            <ellipse cx="307.913" cy="167.061" rx="7.08" ry="6.402" style="fill:rgb(238,238,246);"/>
        </g>
        <path d="M479.733,332.708C482.906,334.628 489.358,337.509 494.012,339.11C494.012,339.11 502.474,341.599 502.58,342.097C502.686,342.595 497.274,342.402 494.647,342.097C491.121,341.688 485.55,341.67 481.425,339.643C474.444,336.442 469.684,332.174 467.145,327.159C463.866,320.757 464.607,320.01 469.578,324.812C472.011,327.266 476.559,330.787 479.733,332.708Z" style="fill:rgb(238,238,246);"/>
        <path d="M547.323,384.777C535.793,392.139 529.235,400.782 523.418,416.04C520.139,424.683 515.167,432.685 510.196,437.38L507.128,440.367L511.888,440.367C523.418,440.367 537.803,434.926 549.121,426.176C556.419,420.628 565.833,410.278 575.67,396.941C585.19,384.137 585.296,384.137 580.536,394.593C565.199,428.31 542.246,446.236 512.629,447.623C494.647,448.37 487.348,444.849 496.022,439.407C500.464,436.633 507.446,429.164 510.725,423.829C512.1,421.482 514.85,415.72 516.754,411.025C522.571,396.194 530.187,388.298 542.563,383.71C550.919,380.722 553.035,381.149 547.323,384.777Z" style="fill:rgb(238,238,246);"/>
    </g>
    <g id="Stars-left">
        <g transform="matrix(1.05775,0,0,1.06699,-419.702,-145.111)">
            <path d="M451.5,256.5C453.256,260.093 454.923,262.426 459.5,264.5C456.087,265.577 453.087,268.244 451.5,271.5C449.913,268.244 447.913,265.577 444.5,264.5C448.588,263.179 449.922,260.845 451.5,256.5Z" style="fill:rgb(87,202,254);"/>
        </g>
        <g transform="matrix(0.740425,0,0,0.746896,-117.792,-146.552)">
            <path d="M251.5,422.5C252.633,426.315 254.966,429.315 258.5,431.5C255.014,433.495 252.847,436.495 252,440.5C250.585,436.749 248.085,433.916 244.5,432C248.597,430.078 250.93,426.912 251.5,422.5Z" style="fill:rgb(122,99,224);"/>
        </g>
        <g transform="matrix(0.847513,0,0,0.937249,-217.118,4.26811)">
            <ellipse cx="307.913" cy="167.061" rx="7.08" ry="6.402" style="fill:rgb(238,238,246);"/>
        </g>
    </g>
    <g id="Stars-right" transform="matrix(1,0,0,1,-331,-142.676)">
        <g transform="matrix(1.6244,0,0,1.79639,168.106,-86.5938)">
            <ellipse cx="307.913" cy="167.061" rx="7.08" ry="6.402" style="fill:rgb(122,99,224);"/>
        </g>
        <g transform="matrix(0.367219,0,0,0.377552,691.074,172.773)">
            <path d="M-5.398,17.348C-1.703,12.064 0.32,-2 1,-2C1.086,-1.299 4.352,14.216 9,19C14.421,22.526 20.708,23.87 27,25C27,25.33 13.888,28.864 6,35C3.456,39.816 0.34,50 0,50C-0.17,49.203 -0.34,48.407 -0.516,47.586C-2.318,39.103 -2.318,39.103 -7,32C-12.853,28.402 -26,25.34 -26,25C-25.074,24.853 -25.074,24.853 -24.129,24.703C-13.88,22.955 -13.88,22.955 -5.398,17.348Z" style="fill:rgb(238,238,246);fill-rule:nonzero;"/>
        </g>
        <g transform="matrix(0.339278,0,0,0.348825,708.143,210.061)">
            <path d="M-5.398,17.348C-1.703,12.064 0.32,-2 1,-2C1.086,-1.299 4.352,14.216 9,19C14.421,22.526 20.708,23.87 27,25C27,25.33 13.888,28.864 6,35C3.456,39.816 0.34,50 0,50C-0.17,49.203 -0.34,48.407 -0.516,47.586C-2.318,39.103 -2.318,39.103 -7,32C-12.853,28.402 -26,25.34 -26,25C-25.074,24.853 -25.074,24.853 -24.129,24.703C-13.88,22.955 -13.88,22.955 -5.398,17.348Z" style="fill:rgb(87,202,254);fill-rule:nonzero;"/>
        </g>
    </g>
    <g id="Planet">
        <g transform="matrix(1.05775,0,0,1.06699,-204.25,-276.729)">
            <path d="M471.992,360.877C471.995,361.117 461.5,368.4 457.9,371.1C446.4,379.6 441.5,381.3 426.9,381.8C414.8,382.2 414.2,382.2 412,380C409.9,377.9 409.9,377.7 411.5,376.8C412.4,376.2 416.7,374.7 417.7,373.8C418.7,373 420.9,371.6 422.5,370.7C426.876,368.557 435.24,359.315 435.055,357.363C443.987,352.157 451.848,346.953 457.696,342.147C460.862,339.545 463.68,337.26 465.924,335.45C468.023,343.139 471.862,350.609 471.992,360.877ZM418.884,362.735C408.507,367.009 402.924,368.897 403.675,367.805C404.416,366.726 401.028,357.738 385.931,355.13C381.037,354.285 359.738,357.66 357.5,356.6C355.6,355.7 355,354.66 353.9,354C352.9,353.4 350,349.9 350.5,349.1C351,348.3 352.2,348.1 353.9,348.5C357,349.3 374,350.7 375.4,350.1C376.44,349.654 380.508,346.823 383.4,346.1C387.6,345.05 392,347.4 394.6,349.8C397.6,352.6 405.1,355.7 410.5,356.4C423.4,358.2 438.1,346.5 438,334.5C438,332.9 437.1,333.4 433.4,337.2C428.2,342.7 422,346.6 417,347.5C414.3,348 412.3,347.5 408.5,345.5C405.8,344 402.6,342 401.5,341.1C395.6,335.8 384.8,333.6 378.8,336.4C376.8,337.4 375.04,337.804 373.1,338.3C370.883,338.867 368.5,339.7 365.5,339.8C362.1,339.9 355.6,337.2 354.5,336.4C352.9,335.2 352.6,333.9 352.8,328.3C352.9,324.6 354,319.717 355,317C355.723,315.035 358.2,312 358.8,312C359.4,312 360.7,313 361.7,314.2C364.5,317.7 369.4,320 373.8,320C377,320 378.6,319.3 381.4,316.6C384.9,313.4 386,311 384.1,311C383.5,311 379.8,312.6 376.9,312.4C371.6,312.2 364.3,304.9 363.8,302.4C363.735,302.056 363.615,301.836 363.404,301.767C381.553,288.096 403.427,286.796 403.962,286.745C409.362,286.23 449.765,289.803 464.429,330.886C450.224,344.567 434.553,356.282 418.884,362.735Z" style="fill:url(#_Linear4);"/>
        </g>
        <g transform="matrix(1.03341,0,0,1.0748,-521.489,-130.26)">
            <path d="M781.524,191.485C766.515,150.701 725.527,148.489 720,149C718.991,149.093 643.818,153.396 655,231C655.079,231.547 650.981,235.678 650,234C644.833,225.167 640.103,146.902 720,142C734.681,141.099 751.772,146.899 765.731,158.443C770.996,154.499 803.317,131.35 818,146C827.466,155.444 803.259,179.53 789.225,192.787C792.001,201.262 793.411,210.692 793,221C792.99,221.258 787.003,224.238 787,224C786.867,213.807 785.57,204.985 783.422,197.351C781.125,199.148 778.241,201.417 775,204C743.848,228.828 656.907,264.381 650,255C650,255 692.079,242.705 734,222C749.456,214.366 766.984,205.067 781.524,191.485ZM767.367,159.835C775.313,166.79 782.134,175.664 786.748,186.271C786.832,186.181 786.916,186.09 787,186C841.228,127.615 773.018,157.317 767.367,159.835Z" style="fill:rgb(238,238,246);"/>
        </g>
    </g>
    <defs>
        <linearGradient id="_Linear1" x1="0" y1="0" x2="1" y2="0" gradientUnits="userSpaceOnUse" gradientTransform="matrix(8.12994,0,0,36.0119,450.32,179.781)"><stop offset="0" style="stop-color:rgb(122,99,224);stop-opacity:1"/><stop offset="1" style="stop-color:rgb(87,202,254);stop-opacity:1"/></linearGradient>
        <linearGradient id="_Linear2" x1="0" y1="0" x2="1" y2="0" gradientUnits="userSpaceOnUse" gradientTransform="matrix(26.4438,0,0,22.6388,346.562,231.209)"><stop offset="0" style="stop-color:rgb(122,99,224);stop-opacity:1"/><stop offset="1" style="stop-color:rgb(87,202,254);stop-opacity:1"/></linearGradient>
        <linearGradient id="_Linear3" x1="0" y1="0" x2="1" y2="0" gradientUnits="userSpaceOnUse" gradientTransform="matrix(212.108,0,0,174.059,547.892,372.97)"><stop offset="0" style="stop-color:rgb(122,99,224);stop-opacity:1"/><stop offset="1" style="stop-color:rgb(87,202,254);stop-opacity:1"/></linearGradient>
        <linearGradient id="_Linear4" x1="0" y1="0" x2="1" y2="0" gradientUnits="userSpaceOnUse" gradientTransform="matrix(118.977,0,0,95.3142,350.443,334.346)"><stop offset="0" style="stop-color:rgb(122,99,224);stop-opacity:1"/><stop offset="0.46" style="stop-color:rgb(112,129,233);stop-opacity:1"/><stop offset="1" style="stop-color:rgb(87,202,254);stop-opacity:1"/></linearGradient>
    </defs>
</svg>
